<?xml version="1.0" standalone="no"?><!DOCTYPE svg PUBLIC "-//W3C//DTD SVG 1.1//EN" "http://www.w3.org/Graphics/SVG/1.1/DTD/svg11.dtd"><svg t="1784028815035" class="icon" viewBox="0 0 1024 1024" version="1.1" xmlns="http://www.w3.org/2000/svg" p-id="72276" xmlns:xlink="http://www.w3.org/1999/xlink" width="200" height="200"><path d="M256 469.504l512 0q4.266667 0 8.362667 0.853333t7.936 2.389334q3.925333 1.621333 7.424 3.925333 3.413333 2.389333 6.485333 5.376 2.901333 2.901333 5.290667 6.4 2.30399999 3.498667 3.925333 7.424 1.621333 3.84 2.389333 8.021333 0.85333301 4.096 0.853334 8.277334 0 4.266667-0.853334 8.362666t-2.389333 7.936q-1.621333 3.925333-3.925333 7.424-2.389333 3.413333-5.290667 6.485334-2.986667 2.901333-6.485333 5.290666-3.498667 2.30399999-7.424 3.925334-3.84 1.621333-7.936 2.389333-4.181333 0.853333-8.362667 0.853333L256 554.837333q-4.266667 0-8.362667-0.853333t-7.936-2.389333q-3.925333-1.621333-7.424-3.925334-3.413333-2.389333-6.485333-5.290666-2.901333-2.986667-5.290667-6.485334-2.30399999-3.498667-3.925333-7.424-1.621333-3.84-2.389333-7.936-0.853333-4.181333-0.853334-8.362666 0-4.266667 0.853334-8.277334 0.853333-4.181333 2.389333-8.021333 1.621333-3.925333 3.925333-7.424 2.389333-3.413333 5.290667-6.4 2.986667-2.986667 6.485333-5.376 3.498667-2.30399999 7.424-3.925333 3.84-1.621333 7.936-2.389334 4.181333-0.853333 8.362667-0.853333z m42.666667 42.666667q0 4.266667-0.85333401 8.362666t-2.38933299 7.936q-1.621333 3.925333-3.925333 7.42399999-2.389333 3.413333-5.290667 6.48533401-2.986667 2.901333-6.485333 5.29066599-3.498667 2.30399999-7.424 3.92533401-3.84 1.621333-7.936 2.389333-4.181333 0.853333-8.362667 0.853333-4.266667 0-8.362667-0.853333t-7.936-2.389333q-3.925333-1.621333-7.424-3.925334-3.413333-2.389333-6.485333-5.290666-2.901333-2.986667-5.290667-6.485334-2.30399999-3.498667-3.925333-7.424-1.621333-3.84-2.389333-7.936-0.853333-4.181333-0.853334-8.362666 0-4.266667 0.853334-8.277334 0.853333-4.181333 2.389333-8.021333 1.621333-3.925333 3.925333-7.424 2.389333-3.413333 5.290667-6.4 2.986667-2.986667 6.485333-5.376 3.498667-2.30399999 7.424-3.925333 3.84-1.621333 7.936-2.389334 4.181333-0.853333 8.362667-0.853333 4.266667 0 8.362667 0.853333t7.936 2.389334q3.925333 1.621333 7.424 3.92533299 3.413333 2.389333 6.485333 5.37600001 2.901333 2.901333 5.290667 6.39999999 2.30399999 3.498667 3.925333 7.42400001 1.621333 3.84 2.389333 8.021333 0.85333301 4.096 0.853334 8.277334z m512 0q0 4.266667-0.853334 8.362666t-2.389333 7.936q-1.621333 3.925333-3.925333 7.424-2.389333 3.413333-5.290667 6.485334-2.986667 2.901333-6.485333 5.290666-3.498667 2.30399999-7.424 3.925334-3.84 1.621333-7.936 2.389333-4.181333 0.853333-8.362667 0.853333-4.266667 0-8.362667-0.853333t-7.936-2.389333q-3.925333-1.621333-7.424-3.92533401-3.413333-2.389333-6.485333-5.29066599-2.901333-2.986667-5.290667-6.48533401-2.30399999-3.498667-3.925333-7.42399999-1.621333-3.84-2.38933299-7.936-0.853333-4.181333-0.85333401-8.362666 0-4.266667 0.853334-8.277334 0.853333-4.181333 2.389333-8.021333 1.621333-3.925333 3.925333-7.42400001 2.389333-3.413333 5.290667-6.39999999 2.986667-2.986667 6.485333-5.37600001 3.498667-2.30399999 7.424-3.92533299 3.84-1.621333 7.936-2.389334 4.181333-0.853333 8.362667-0.853333 4.266667 0 8.362667 0.853333t7.936 2.389334q3.925333 1.621333 7.424 3.925333 3.413333 2.389333 6.485333 5.376 2.901333 2.901333 5.290667 6.4 2.30399999 3.498667 3.925333 7.424 1.621333 3.84 2.389333 8.021333 0.85333301 4.096 0.853334 8.277334z" p-id="72277"></path><path d="M481.792 737.792l256-256L767.99999999 512l-30.20799999 30.208-256-256q-2.901333-2.986667-5.290667-6.485333-2.30399999-3.498667-3.925333-7.424-1.621333-3.84-2.389333-7.936Q469.333333 260.181333 469.333333 256q0-4.266667 0.853334-8.362667t2.389333-7.936q1.621333-3.925333 3.925333-7.424 2.389333-3.413333 5.29066699-6.485333 2.986667-2.901333 6.48533301-5.290667 3.498667-2.30399999 7.424-3.92533301 3.84-1.621333 7.936-2.38933299 4.181333-0.853333 8.362667-0.853334 4.266667 0 8.362667 0.853334t7.936 2.38933299q3.925333 1.621333 7.424 3.92533301 3.413333 2.389333 6.48533301 5.290667l255.99999999 255.99999999q2.901333 2.986667 5.290667 6.48533301 2.30399999 3.498667 3.92533301 7.424 1.621333 3.84 2.38933299 7.936 0.853333 4.181333 0.853334 8.362667 0 4.266667-0.853334 8.362667t-2.38933299 7.936q-1.621333 3.925333-3.92533301 7.424-2.389333 3.413333-5.290667 6.48533301l-255.99999999 255.99999999q-2.986667 2.901333-6.48533301 5.290667-3.498667 2.30399999-7.424 3.92533301-3.84 1.621333-7.936 2.38933299-4.181333 0.853333-8.362667 0.853334-4.266667 0-8.362667-0.853334t-7.936-2.38933299q-3.925333-1.621333-7.424-3.92533301-3.413333-2.389333-6.48533301-5.290667-2.901333-2.986667-5.29066699-6.485333-2.30399999-3.498667-3.925333-7.424-1.621333-3.84-2.389333-7.936Q469.333333 772.181333 469.333333 768q0-4.266667 0.853334-8.362667t2.389333-7.936q1.621333-3.925333 3.925333-7.424 2.389333-3.413333 5.290667-6.485333zM554.666667 768q0 4.266667-0.853334 8.362667t-2.389333 7.936q-1.621333 3.925333-3.925333 7.424-2.389333 3.413333-5.29066699 6.485333-2.986667 2.901333-6.48533301 5.290667-3.498667 2.30399999-7.424 3.92533301-3.84 1.621333-7.936 2.38933299-4.181333 0.853333-8.362667 0.853334-4.266667 0-8.362667-0.853334t-7.936-2.38933299q-3.925333-1.621333-7.424-3.92533301-3.413333-2.389333-6.48533301-5.290667-2.901333-2.986667-5.29066699-6.485333-2.30399999-3.498667-3.925333-7.424-1.621333-3.84-2.389333-7.936Q469.333333 772.181333 469.333333 768q0-4.266667 0.853334-8.362667t2.389333-7.936q1.621333-3.925333 3.925333-7.424 2.389333-3.413333 5.290667-6.485333 2.986667-2.901333 6.485333-5.290667 3.498667-2.30399999 7.424-3.925333 3.84-1.621333 7.936-2.389333 4.181333-0.853333 8.362667-0.853334 4.266667 0 8.362667 0.853334t7.936 2.389333q3.925333 1.621333 7.424 3.925333 3.413333 2.389333 6.485333 5.290667 2.901333 2.986667 5.290667 6.485333 2.30399999 3.498667 3.925333 7.424 1.621333 3.84 2.389333 7.936 0.853333 4.181333 0.853334 8.362667z m0-512q0 4.266667-0.853334 8.362667t-2.389333 7.936q-1.621333 3.925333-3.925333 7.424-2.389333 3.413333-5.290667 6.485333-2.986667 2.901333-6.485333 5.290667-3.498667 2.30399999-7.424 3.925333-3.84 1.621333-7.936 2.389333-4.181333 0.853333-8.362667 0.853334-4.266667 0-8.362667-0.853334t-7.936-2.389333q-3.925333-1.621333-7.424-3.925333-3.413333-2.389333-6.485333-5.290667-2.901333-2.986667-5.290667-6.485333-2.30399999-3.498667-3.925333-7.424-1.621333-3.84-2.389333-7.936Q469.333333 260.181333 469.333333 256q0-4.266667 0.853334-8.362667t2.389333-7.936q1.621333-3.925333 3.925333-7.424 2.389333-3.413333 5.29066699-6.485333 2.986667-2.901333 6.48533301-5.290667 3.498667-2.30399999 7.424-3.92533301 3.84-1.621333 7.936-2.38933299 4.181333-0.853333 8.362667-0.853334 4.266667 0 8.362667 0.853334t7.936 2.38933299q3.925333 1.621333 7.424 3.92533301 3.413333 2.389333 6.48533301 5.290667 2.901333 2.986667 5.29066699 6.485333 2.30399999 3.498667 3.925333 7.424 1.621333 3.84 2.389333 7.936 0.853333 4.181333 0.853334 8.362667z" p-id="72278"></path></svg>